<svg width="82" height="85" viewBox="0 0 82 85" fill="none" xmlns="http://www.w3.org/2000/svg">
<path d="M39.6736 5.79688C19.4384 5.79688 2.97046 22.8696 2.97046 43.8594C2.97046 64.8491 19.4384 81.9219 39.6736 81.9219C59.9088 81.9219 76.3767 64.8491 76.3767 43.8594C76.3767 37.7634 74.943 31.7444 72.2585 26.3662L79.8028 18.5374C80.2972 18.0247 80.2972 17.1941 79.8028 16.6814L74.7403 11.4314C74.2459 10.9187 73.445 10.9187 72.9506 11.4314L66.5385 18.0811C66.4791 17.917 66.3901 17.7632 66.2715 17.6299C59.271 10.001 49.8233 5.79688 39.6736 5.79688ZM39.6736 8.42188C49.1262 8.42188 57.9213 12.3337 64.4324 19.4397C64.5757 19.5935 64.7438 19.6909 64.9218 19.7576L61.1694 23.6489C61.1101 23.4951 61.031 23.3464 60.9124 23.2131C60.6998 22.9773 60.4822 22.7466 60.2598 22.5159C59.4243 21.6494 58.5344 20.8342 57.6099 20.0806C57.0562 19.6345 56.2602 19.7319 55.8301 20.301C55.4 20.8752 55.4939 21.6956 56.0476 22.1416C56.893 22.8286 57.7038 23.5823 58.4651 24.3718C58.6678 24.582 58.8705 24.7974 59.0634 25.0127C59.2018 25.1614 59.3699 25.2639 59.5479 25.3357L39.6736 45.9409L26.6465 32.4314C26.1522 31.9187 25.3513 31.9187 24.8569 32.4314L19.7944 37.6814C19.3 38.1941 19.3 39.0247 19.7944 39.5374L38.7787 59.2249C39.0259 59.4812 39.3473 59.6094 39.6736 59.6094C39.9999 59.6094 40.3212 59.4812 40.5684 59.2249L64.5955 34.3079C64.6796 34.5437 64.7587 34.7795 64.8378 35.0205C64.9663 35.4102 65.085 35.8049 65.1937 36.2048C65.2382 36.374 65.2975 36.5432 65.342 36.7124C65.4904 37.3071 65.6238 37.907 65.7375 38.5068C65.7573 38.6094 65.7722 38.7119 65.7919 38.8145C66.8301 44.7002 65.9749 50.8064 63.4288 56.1436C63.3002 56.4102 63.1717 56.6819 63.0333 56.9485C62.8256 57.3535 62.6031 57.7585 62.3757 58.1533C62.1631 58.5173 61.9407 58.866 61.7133 59.2146C61.5155 59.5171 61.3276 59.8298 61.1151 60.1272C60.68 60.7527 60.2202 61.3474 59.7357 61.9268C59.5627 62.1318 59.3748 62.3267 59.1968 62.5266C51.6624 70.9861 39.4758 73.97 28.7971 69.0071C25.6083 67.5254 22.8596 65.4541 20.5706 62.9932C20.2542 62.6548 19.9575 62.301 19.6609 61.9473C19.3593 61.5884 19.0577 61.2295 18.7759 60.8604C18.5584 60.5732 18.3607 60.2759 18.158 59.9836C17.8317 59.5222 17.5153 59.0608 17.2236 58.5789C17.0901 58.3635 16.9714 58.1379 16.8478 57.9175C16.5265 57.3586 16.215 56.7947 15.9332 56.2102C15.8492 56.0308 15.775 55.8462 15.691 55.6667C15.4092 55.0515 15.1373 54.426 14.9 53.7903C14.8209 53.5801 14.7566 53.3596 14.6824 53.1494C14.4797 52.5496 14.277 51.9446 14.1089 51.3293C14.02 51.0012 13.9557 50.6628 13.8766 50.3296C13.7579 49.8323 13.6442 49.3401 13.5503 48.8376C13.4662 48.3403 13.4069 47.843 13.3476 47.3457C13.3031 46.9971 13.2487 46.6484 13.2191 46.2998C13.1647 45.6743 13.1449 45.0437 13.135 44.4131C13.1251 44.1772 13.1152 43.9465 13.1152 43.7158C13.1202 43.0339 13.1597 42.3572 13.2092 41.6804C13.224 41.4753 13.2289 41.2754 13.2487 41.0703C13.313 40.4294 13.4069 39.7834 13.5157 39.1426C13.5552 38.8914 13.5948 38.635 13.6442 38.3838C13.748 37.825 13.8914 37.2815 14.0298 36.7278C14.1238 36.3792 14.2078 36.0305 14.3116 35.6819C14.4451 35.2256 14.6033 34.7795 14.7615 34.3335C14.9197 33.8977 15.0779 33.4568 15.2559 33.0261C15.4438 32.5647 15.6514 32.1135 15.864 31.6624C16.0024 31.3701 16.1409 31.0676 16.2892 30.7805C16.571 30.2319 16.8824 29.6987 17.2087 29.1707C17.3175 28.9861 17.4164 28.7964 17.5301 28.6169C17.98 27.9146 18.4645 27.2327 18.9836 26.5713C19.1072 26.4072 19.2456 26.2585 19.3741 26.0996C19.7845 25.5972 20.2097 25.105 20.6546 24.623C20.9463 24.3206 21.238 24.0181 21.5396 23.7258C21.6681 23.6028 21.7966 23.4695 21.9301 23.3464C22.3899 22.9209 22.8645 22.5107 23.349 22.116C23.5121 21.9827 23.6852 21.8596 23.8533 21.7314C24.1845 21.4751 24.5256 21.2239 24.8668 20.988C25.0991 20.824 25.3315 20.665 25.5688 20.5164C25.8605 20.3267 26.1571 20.1472 26.4537 19.9678C26.9728 19.6602 27.5018 19.3679 28.0407 19.1013C28.2385 18.9988 28.4313 18.8911 28.629 18.7988C29.0048 18.6194 29.3805 18.4604 29.7612 18.3015C29.9194 18.2349 30.0776 18.1733 30.2407 18.1067C30.6511 17.9478 31.0663 17.7837 31.4866 17.6453C31.4965 17.6401 31.5014 17.6401 31.5113 17.6401C32.4852 17.3171 33.474 17.0454 34.4776 16.8352L34.5172 16.8301C34.9868 16.7327 35.4614 16.6506 35.936 16.584C36.0349 16.5686 36.1338 16.5532 36.2327 16.543C37.5675 16.3584 38.9221 16.2866 40.2767 16.3174C40.5486 16.3225 40.8156 16.3276 41.0875 16.343C41.4188 16.3635 41.75 16.384 42.0862 16.4148C42.5361 16.4558 42.9909 16.5173 43.4507 16.584C43.599 16.6045 43.7523 16.6199 43.9006 16.6455C44.5927 16.7583 45.2404 16.2712 45.3491 15.5586V15.5535C45.4628 14.8357 44.9932 14.1641 44.301 14.0461C44.1428 14.0205 43.9846 14.0154 43.8264 13.9897C43.3221 13.9128 42.8129 13.8513 42.3037 13.8C41.9527 13.7693 41.6066 13.7488 41.2556 13.7283C40.9293 13.7078 40.608 13.6975 40.2866 13.6924C38.8578 13.6616 37.4439 13.7437 36.0497 13.9231C35.8619 13.9487 35.679 13.9744 35.496 14C35.0313 14.0718 34.5715 14.1487 34.1118 14.2461C33.9684 14.2717 33.83 14.3076 33.6866 14.3384C32.8362 14.5281 31.9908 14.7485 31.1652 15.0151C30.9823 15.0715 30.8043 15.1228 30.6214 15.1843C30.2407 15.3176 29.865 15.4612 29.4843 15.6047C29.2025 15.7175 28.9207 15.8303 28.6439 15.9482C28.3176 16.0867 27.9863 16.2251 27.665 16.3789C27.1014 16.6455 26.5378 16.9275 25.989 17.23C25.8061 17.3325 25.6281 17.4453 25.4452 17.5479C25.0002 17.8093 24.5602 18.0759 24.1301 18.3579C23.9423 18.481 23.7544 18.6091 23.5665 18.7373C23.0919 19.0654 22.6272 19.4089 22.1724 19.7627C22.0685 19.8447 21.9598 19.9216 21.856 20.0037C21.2874 20.46 20.7337 20.9419 20.1948 21.4443C20.1058 21.5264 20.0267 21.6084 19.9377 21.6904C19.6559 21.9622 19.3692 22.2339 19.0923 22.5159C18.9935 22.6184 18.9094 22.7312 18.8105 22.8389C18.3656 23.3157 17.9355 23.8181 17.5153 24.3308C17.3422 24.5359 17.1593 24.741 16.9962 24.9512C16.4474 25.6587 15.9233 26.3918 15.4339 27.1506C15.2905 27.3813 15.1669 27.6121 15.0334 27.8428C14.6973 28.3965 14.371 28.9502 14.0694 29.5295C13.9013 29.8577 13.748 30.1909 13.5898 30.5242C13.4366 30.8523 13.2636 31.1702 13.1152 31.5085C13.0015 31.7751 12.9026 32.0417 12.7988 32.3083C12.7543 32.4109 12.7098 32.5134 12.6703 32.6211C12.3391 33.4773 12.0474 34.3438 11.7952 35.2153C11.7853 35.241 11.7804 35.2666 11.7705 35.2922C10.6878 39.0862 10.3615 42.9622 10.7125 46.7407C10.7175 46.751 10.7175 46.7612 10.7224 46.7715C10.8065 47.679 10.9301 48.5762 11.0932 49.4631C11.113 49.5862 11.1426 49.7092 11.1674 49.8323C11.3157 50.6167 11.4986 51.3857 11.7112 52.1548C11.7705 52.3804 11.8397 52.6008 11.904 52.8213C12.1067 53.498 12.3292 54.1646 12.5764 54.8208C12.6802 55.1028 12.7889 55.3796 12.9076 55.6565C13.1548 56.2717 13.4267 56.8767 13.7134 57.4714C13.8519 57.7534 13.9903 58.0303 14.1386 58.302C14.455 58.9172 14.8011 59.512 15.157 60.1016C15.2955 60.3271 15.4339 60.5476 15.5773 60.7629C16.0024 61.4192 16.4523 62.0498 16.9269 62.6702C17.0308 62.8035 17.1296 62.9419 17.2384 63.0752C17.7921 63.7725 18.3804 64.4492 18.9984 65.0952C19.033 65.1311 19.0627 65.1721 19.0923 65.208C19.1022 65.2131 19.1121 65.2131 19.1171 65.2183C21.5494 67.7407 24.4465 69.8582 27.7688 71.4014C31.625 73.1958 35.6592 74.0469 39.634 74.0469C47.3217 74.0469 54.777 70.8682 60.2499 65.2131C60.2548 65.208 60.2598 65.208 60.2598 65.2029C60.3636 65.1003 60.4476 64.9875 60.5465 64.8799C60.9519 64.4543 61.3524 64.0134 61.733 63.552C61.822 63.4495 61.8962 63.3367 61.9802 63.2341C62.3757 62.7471 62.7564 62.2498 63.1223 61.7371C63.1618 61.6755 63.2014 61.6191 63.2409 61.5576C64.3879 59.917 65.4063 58.1379 66.2369 56.2102C68.6791 50.5654 69.3564 44.3208 68.2836 38.3376C68.2639 38.2197 68.2441 38.1069 68.2243 37.9941C68.0958 37.3379 67.9573 36.6816 67.7892 36.0305C67.7448 35.8459 67.6805 35.6665 67.631 35.4768C67.5074 35.041 67.3789 34.6001 67.2405 34.1643C67.1465 33.8875 67.0526 33.6106 66.9537 33.3337C66.8252 32.98 66.6868 32.6313 66.5483 32.2827L70.3848 28.3093C72.6441 33.1287 73.8455 38.4607 73.8455 43.8594C73.8455 63.3982 58.5146 79.2969 39.6736 79.2969C20.8326 79.2969 5.50171 63.3982 5.50171 43.8594C5.50171 24.3206 20.8326 8.42188 39.6736 8.42188ZM73.8455 14.2153L77.1183 17.6094L39.6736 56.4409L22.4789 38.6094L25.7517 35.2153L38.7787 48.7249C39.2731 49.2375 40.074 49.2375 40.5684 48.7249L73.8455 14.2153ZM49.3635 15.4919C48.8741 15.5125 48.4193 15.8355 48.2363 16.343C47.9891 17.0249 48.3204 17.7786 48.9779 18.0349C49.8826 18.3835 50.7725 18.7886 51.6377 19.2346C51.8206 19.332 52.0134 19.3782 52.2062 19.3782C52.666 19.3782 53.111 19.1167 53.3384 18.6553C53.6498 18.0093 53.3977 17.2197 52.7748 16.8916C51.8354 16.3994 50.8516 15.9585 49.8629 15.574C49.6997 15.5125 49.5316 15.4868 49.3635 15.4919Z" fill="#F66D65"/>
</svg>
