<svg width="78" height="75" viewBox="0 0 78 75" fill="none" xmlns="http://www.w3.org/2000/svg">
<path d="M4.08594 0.796875C1.89142 0.796875 0.101562 2.56567 0.101562 4.73438V65.1094C0.101562 70.1748 4.27271 74.2969 9.39844 74.2969H67.8359C72.9617 74.2969 77.1328 70.1748 77.1328 65.1094V32.2969C77.1328 29.4001 74.7515 27.0469 71.8203 27.0469H61.1953V4.73438C61.1953 2.56567 59.4055 0.796875 57.2109 0.796875H4.08594ZM4.08594 3.42188H57.2109C57.9424 3.42188 58.5391 4.01147 58.5391 4.73438V65.1094C58.5391 67.7292 59.5403 70.0312 61.2057 71.6719H9.39844C5.73572 71.6719 2.75781 68.729 2.75781 65.1094V61.1719H43.9297C44.6664 61.1719 45.2578 60.5874 45.2578 59.8594C45.2578 59.1313 44.6664 58.5469 43.9297 58.5469H2.75781V4.73438C2.75781 4.01147 3.35443 3.42188 4.08594 3.42188ZM12.0547 11.2969C11.318 11.2969 10.7266 11.8813 10.7266 12.6094C10.7266 13.3374 11.318 13.9219 12.0547 13.9219H33.3047C34.0414 13.9219 34.6328 13.3374 34.6328 12.6094C34.6328 11.8813 34.0414 11.2969 33.3047 11.2969H12.0547ZM38.6172 11.2969C37.8805 11.2969 37.2891 11.8813 37.2891 12.6094C37.2891 13.3374 37.8805 13.9219 38.6172 13.9219H46.5859C47.3226 13.9219 47.9141 13.3374 47.9141 12.6094C47.9141 11.8813 47.3226 11.2969 46.5859 11.2969H38.6172ZM12.0547 16.5469C11.318 16.5469 10.7266 17.1313 10.7266 17.8594C10.7266 18.5874 11.318 19.1719 12.0547 19.1719H25.3359C26.0726 19.1719 26.6641 18.5874 26.6641 17.8594C26.6641 17.1313 26.0726 16.5469 25.3359 16.5469H12.0547ZM30.6484 16.5469C29.9117 16.5469 29.3203 17.1313 29.3203 17.8594C29.3203 18.5874 29.9117 19.1719 30.6484 19.1719H46.5859C47.3226 19.1719 47.9141 18.5874 47.9141 17.8594C47.9141 17.1313 47.3226 16.5469 46.5859 16.5469H30.6484ZM12.0547 27.0469C11.318 27.0469 10.7266 27.6313 10.7266 28.3594C10.7266 29.0874 11.318 29.6719 12.0547 29.6719H25.3359C26.0726 29.6719 26.6641 29.0874 26.6641 28.3594C26.6641 27.6313 26.0726 27.0469 25.3359 27.0469H12.0547ZM33.3047 27.0469C32.568 27.0469 31.9766 27.6313 31.9766 28.3594C31.9766 29.0874 32.568 29.6719 33.3047 29.6719H46.5859C47.3226 29.6719 47.9141 29.0874 47.9141 28.3594C47.9141 27.6313 47.3226 27.0469 46.5859 27.0469H33.3047ZM61.1953 29.6719H67.2497C66.788 30.446 66.5078 31.3381 66.5078 32.2969V54.6094C66.5078 55.3374 67.0992 55.9219 67.8359 55.9219C68.5726 55.9219 69.1641 55.3374 69.1641 54.6094V32.2969C69.1641 30.8511 70.3573 29.6719 71.8203 29.6719C73.2833 29.6719 74.4766 30.8511 74.4766 32.2969V65.1094C74.4766 68.729 71.4987 71.6719 67.8359 71.6719C63.9865 71.6719 61.1953 68.9136 61.1953 65.1094V29.6719ZM12.0547 32.2969C11.318 32.2969 10.7266 32.8813 10.7266 33.6094C10.7266 34.3374 11.318 34.9219 12.0547 34.9219H25.3359C26.0726 34.9219 26.6641 34.3374 26.6641 33.6094C26.6641 32.8813 26.0726 32.2969 25.3359 32.2969H12.0547ZM33.3047 32.2969C32.568 32.2969 31.9766 32.8813 31.9766 33.6094C31.9766 34.3374 32.568 34.9219 33.3047 34.9219H46.5859C47.3226 34.9219 47.9141 34.3374 47.9141 33.6094C47.9141 32.8813 47.3226 32.2969 46.5859 32.2969H33.3047ZM12.0547 37.5469C11.318 37.5469 10.7266 38.1313 10.7266 38.8594C10.7266 39.5874 11.318 40.1719 12.0547 40.1719H25.3359C26.0726 40.1719 26.6641 39.5874 26.6641 38.8594C26.6641 38.1313 26.0726 37.5469 25.3359 37.5469H12.0547ZM33.3047 37.5469C32.568 37.5469 31.9766 38.1313 31.9766 38.8594C31.9766 39.5874 32.568 40.1719 33.3047 40.1719H46.5859C47.3226 40.1719 47.9141 39.5874 47.9141 38.8594C47.9141 38.1313 47.3226 37.5469 46.5859 37.5469H33.3047ZM12.0547 42.7969C11.318 42.7969 10.7266 43.3813 10.7266 44.1094C10.7266 44.8374 11.318 45.4219 12.0547 45.4219H25.3359C26.0726 45.4219 26.6641 44.8374 26.6641 44.1094C26.6641 43.3813 26.0726 42.7969 25.3359 42.7969H12.0547ZM33.3047 42.7969C32.568 42.7969 31.9766 43.3813 31.9766 44.1094C31.9766 44.8374 32.568 45.4219 33.3047 45.4219H46.5859C47.3226 45.4219 47.9141 44.8374 47.9141 44.1094C47.9141 43.3813 47.3226 42.7969 46.5859 42.7969H33.3047ZM12.0547 48.0469C11.318 48.0469 10.7266 48.6313 10.7266 49.3594C10.7266 50.0874 11.318 50.6719 12.0547 50.6719H25.3359C26.0726 50.6719 26.6641 50.0874 26.6641 49.3594C26.6641 48.6313 26.0726 48.0469 25.3359 48.0469H12.0547ZM49.2422 58.5469C48.5055 58.5469 47.9141 59.1313 47.9141 59.8594C47.9141 60.5874 48.5055 61.1719 49.2422 61.1719H54.5547C55.2914 61.1719 55.8828 60.5874 55.8828 59.8594C55.8828 59.1313 55.2914 58.5469 54.5547 58.5469H49.2422ZM8.07031 63.7969C7.33362 63.7969 6.74219 64.3813 6.74219 65.1094V67.7344C6.74219 68.4624 7.33362 69.0469 8.07031 69.0469C8.80701 69.0469 9.39844 68.4624 9.39844 67.7344V65.1094C9.39844 64.3813 8.80701 63.7969 8.07031 63.7969ZM14.7109 63.7969C13.9742 63.7969 13.3828 64.3813 13.3828 65.1094V67.7344C13.3828 68.4624 13.9742 69.0469 14.7109 69.0469C15.4476 69.0469 16.0391 68.4624 16.0391 67.7344V65.1094C16.0391 64.3813 15.4476 63.7969 14.7109 63.7969ZM21.3516 63.7969C20.6149 63.7969 20.0234 64.3813 20.0234 65.1094V67.7344C20.0234 68.4624 20.6149 69.0469 21.3516 69.0469C22.0883 69.0469 22.6797 68.4624 22.6797 67.7344V65.1094C22.6797 64.3813 22.0883 63.7969 21.3516 63.7969ZM27.9922 63.7969C27.2555 63.7969 26.6641 64.3813 26.6641 65.1094V67.7344C26.6641 68.4624 27.2555 69.0469 27.9922 69.0469C28.7289 69.0469 29.3203 68.4624 29.3203 67.7344V65.1094C29.3203 64.3813 28.7289 63.7969 27.9922 63.7969ZM34.6328 63.7969C33.8961 63.7969 33.3047 64.3813 33.3047 65.1094V67.7344C33.3047 68.4624 33.8961 69.0469 34.6328 69.0469C35.3695 69.0469 35.9609 68.4624 35.9609 67.7344V65.1094C35.9609 64.3813 35.3695 63.7969 34.6328 63.7969ZM41.2734 63.7969C40.5367 63.7969 39.9453 64.3813 39.9453 65.1094V67.7344C39.9453 68.4624 40.5367 69.0469 41.2734 69.0469C42.0101 69.0469 42.6016 68.4624 42.6016 67.7344V65.1094C42.6016 64.3813 42.0101 63.7969 41.2734 63.7969ZM47.9141 63.7969C47.1774 63.7969 46.5859 64.3813 46.5859 65.1094V67.7344C46.5859 68.4624 47.1774 69.0469 47.9141 69.0469C48.6508 69.0469 49.2422 68.4624 49.2422 67.7344V65.1094C49.2422 64.3813 48.6508 63.7969 47.9141 63.7969ZM54.5547 63.7969C53.818 63.7969 53.2266 64.3813 53.2266 65.1094V67.7344C53.2266 68.4624 53.818 69.0469 54.5547 69.0469C55.2914 69.0469 55.8828 68.4624 55.8828 67.7344V65.1094C55.8828 64.3813 55.2914 63.7969 54.5547 63.7969Z" fill="#F66D65"/>
</svg>
