<svg width="62" height="75" viewBox="0 0 62 75" fill="none" xmlns="http://www.w3.org/2000/svg">
<path d="M18.5764 0.624023C16.8021 0.624023 15.1368 1.31403 13.8813 2.56952L2.3847 14.0661C1.12921 15.3216 0.439209 16.9869 0.439209 18.7612V71.0146C0.439209 73.2092 2.22906 74.999 4.42358 74.999H57.5486C59.7431 74.999 61.533 73.2092 61.533 71.0146V4.6084C61.533 2.41388 59.7431 0.624023 57.5486 0.624023H18.5764ZM19.033 3.28027H57.5486C58.2801 3.28027 58.8767 3.87689 58.8767 4.6084V71.0146C58.8767 71.7462 58.2801 72.3428 57.5486 72.3428H4.42358C3.69208 72.3428 3.09546 71.7462 3.09546 71.0146V19.2178H15.0486C17.2431 19.2178 19.033 17.4279 19.033 15.2334V3.28027ZM16.3767 3.94434V15.2334C16.3767 15.9649 15.7801 16.5615 15.0486 16.5615H3.75952C3.8996 16.3436 4.0708 16.1361 4.26276 15.9442L15.7593 4.44757C15.9513 4.2608 16.1588 4.09479 16.3767 3.94434ZM15.0486 24.5303C14.3171 24.5303 13.7205 25.1269 13.7205 25.8584C13.7205 26.5899 14.3171 27.1865 15.0486 27.1865H36.2986C37.0301 27.1865 37.6267 26.5899 37.6267 25.8584C37.6267 25.1269 37.0301 24.5303 36.2986 24.5303H15.0486ZM41.6111 24.5303C40.8796 24.5303 40.283 25.1269 40.283 25.8584C40.283 26.5899 40.8796 27.1865 41.6111 27.1865H46.9236C47.6551 27.1865 48.2517 26.5899 48.2517 25.8584C48.2517 25.1269 47.6551 24.5303 46.9236 24.5303H41.6111ZM15.0486 29.8428C14.3171 29.8428 13.7205 30.4394 13.7205 31.1709C13.7205 31.9024 14.3171 32.499 15.0486 32.499H41.6111C42.3426 32.499 42.9392 31.9024 42.9392 31.1709C42.9392 30.4394 42.3426 29.8428 41.6111 29.8428H15.0486ZM15.0486 37.8115C14.3171 37.8115 13.7205 38.4081 13.7205 39.1396C13.7205 39.8712 14.3171 40.4678 15.0486 40.4678H44.2673C44.9988 40.4678 45.5955 39.8712 45.5955 39.1396C45.5955 38.4081 44.9988 37.8115 44.2673 37.8115H15.0486ZM15.0486 43.124C14.3171 43.124 13.7205 43.7206 13.7205 44.4521C13.7205 45.1837 14.3171 45.7803 15.0486 45.7803H30.9861C31.7176 45.7803 32.3142 45.1837 32.3142 44.4521C32.3142 43.7206 31.7176 43.124 30.9861 43.124H15.0486ZM7.07983 61.7178C6.34833 61.7178 5.75171 62.3144 5.75171 63.0459V65.7021C5.75171 66.4337 6.34833 67.0303 7.07983 67.0303C7.81134 67.0303 8.40796 66.4337 8.40796 65.7021V63.0459C8.40796 62.3144 7.81134 61.7178 7.07983 61.7178ZM13.7205 61.7178C12.989 61.7178 12.3923 62.3144 12.3923 63.0459V65.7021C12.3923 66.4337 12.989 67.0303 13.7205 67.0303C14.452 67.0303 15.0486 66.4337 15.0486 65.7021V63.0459C15.0486 62.3144 14.452 61.7178 13.7205 61.7178ZM20.3611 61.7178C19.6296 61.7178 19.033 62.3144 19.033 63.0459V65.7021C19.033 66.4337 19.6296 67.0303 20.3611 67.0303C21.0926 67.0303 21.6892 66.4337 21.6892 65.7021V63.0459C21.6892 62.3144 21.0926 61.7178 20.3611 61.7178ZM27.0017 61.7178C26.2702 61.7178 25.6736 62.3144 25.6736 63.0459V65.7021C25.6736 66.4337 26.2702 67.0303 27.0017 67.0303C27.7332 67.0303 28.3298 66.4337 28.3298 65.7021V63.0459C28.3298 62.3144 27.7332 61.7178 27.0017 61.7178ZM33.6423 61.7178C32.9108 61.7178 32.3142 62.3144 32.3142 63.0459V65.7021C32.3142 66.4337 32.9108 67.0303 33.6423 67.0303C34.3738 67.0303 34.9705 66.4337 34.9705 65.7021V63.0459C34.9705 62.3144 34.3738 61.7178 33.6423 61.7178ZM40.283 61.7178C39.5515 61.7178 38.9548 62.3144 38.9548 63.0459V65.7021C38.9548 66.4337 39.5515 67.0303 40.283 67.0303C41.0145 67.0303 41.6111 66.4337 41.6111 65.7021V63.0459C41.6111 62.3144 41.0145 61.7178 40.283 61.7178ZM46.9236 61.7178C46.1921 61.7178 45.5955 62.3144 45.5955 63.0459V65.7021C45.5955 66.4337 46.1921 67.0303 46.9236 67.0303C47.6551 67.0303 48.2517 66.4337 48.2517 65.7021V63.0459C48.2517 62.3144 47.6551 61.7178 46.9236 61.7178ZM53.5642 61.7178C52.8327 61.7178 52.2361 62.3144 52.2361 63.0459V65.7021C52.2361 66.4337 52.8327 67.0303 53.5642 67.0303C54.2957 67.0303 54.8923 66.4337 54.8923 65.7021V63.0459C54.8923 62.3144 54.2957 61.7178 53.5642 61.7178Z" fill="#F66D65"/>
</svg>
