<svg width="77" height="75" viewBox="0 0 77 75" fill="none" xmlns="http://www.w3.org/2000/svg">
<path d="M38.1641 0.562744C17.1743 0.562744 0.101562 17.229 0.101562 37.719C0.101562 58.209 17.1743 74.8752 38.1641 74.8752C59.1538 74.8752 76.2266 58.209 76.2266 37.719C76.2266 17.229 59.1538 0.562744 38.1641 0.562744ZM38.1641 3.12524C57.7029 3.12524 73.6016 18.6454 73.6016 37.719C73.6016 56.7926 57.7029 72.3127 38.1641 72.3127C18.6252 72.3127 2.72656 56.7926 2.72656 37.719C2.72656 18.6454 18.6252 3.12524 38.1641 3.12524ZM38.1641 8.25024C21.5168 8.25024 7.97656 21.4681 7.97656 37.719C7.97656 53.9698 21.5168 67.1877 38.1641 67.1877C54.8113 67.1877 68.3516 53.9698 68.3516 37.719C68.3516 28.6151 64.1423 20.1669 56.8005 14.5364C56.2314 14.101 55.4111 14.196 54.96 14.7516C54.5139 15.3071 54.6113 16.1129 55.1804 16.5533C61.8813 21.6934 65.7266 29.4109 65.7266 37.719C65.7266 52.5535 53.3604 64.6252 38.1641 64.6252C22.9678 64.6252 10.6016 52.5535 10.6016 37.719C10.6016 22.8845 22.9678 10.8127 38.1641 10.8127C39.5125 10.8127 40.866 10.9078 42.1836 11.098C42.9065 11.2031 43.573 10.7177 43.6755 10.017C43.7781 9.31628 43.2859 8.66565 42.5681 8.56055C41.1223 8.35535 39.6406 8.25024 38.1641 8.25024ZM48.0488 9.97192C47.5413 9.99695 47.0696 10.3123 46.8799 10.8127C46.6338 11.4734 46.9824 12.2091 47.6643 12.4543C48.6897 12.8197 49.71 13.2601 50.6943 13.7506C50.8892 13.8457 51.0942 13.8907 51.2942 13.8907C51.771 13.8907 52.2324 13.6355 52.4631 13.1901C52.7913 12.5594 52.5349 11.7887 51.8889 11.4684C50.8123 10.9279 49.6946 10.4524 48.5667 10.047C48.3975 9.98694 48.2231 9.96192 48.0488 9.97192ZM38.1641 15.9377C37.4412 15.9377 36.8516 16.5133 36.8516 17.219V19.7815C36.8516 20.4872 37.4412 21.0627 38.1641 21.0627C38.887 21.0627 39.4766 20.4872 39.4766 19.7815V17.219C39.4766 16.5133 38.887 15.9377 38.1641 15.9377ZM46.0134 17.4342C45.5007 17.4392 45.0188 17.7395 44.8137 18.235L43.8293 20.6073C43.5576 21.2629 43.8806 22.0137 44.5574 22.2789C44.7163 22.339 44.8855 22.369 45.0496 22.369C45.5674 22.369 46.0596 22.0687 46.2646 21.5682L47.249 19.1909C47.5208 18.5353 47.1926 17.7896 46.521 17.5243C46.3518 17.4592 46.1826 17.4292 46.0134 17.4342ZM52.7297 21.6884C52.3914 21.6984 52.0632 21.8285 51.8069 22.0837L49.9817 23.9255C49.4792 24.436 49.4946 25.2468 50.0176 25.7373C50.2688 25.9775 50.5969 26.0977 50.925 26.0977C51.2737 26.0977 51.6121 25.9625 51.8684 25.7073L53.6936 23.8655C54.2012 23.355 54.1858 22.5442 53.668 22.0487C53.4065 21.8035 53.0681 21.6833 52.7297 21.6884ZM38.1641 23.6252C37.4412 23.6252 36.8516 24.2008 36.8516 24.9065V35.5118C36.0723 35.9573 35.5391 36.7731 35.5391 37.719C35.5391 39.1304 36.7183 40.2815 38.1641 40.2815C38.3999 40.2815 38.6204 40.2415 38.8357 40.1864L47.0798 48.2343C47.3362 48.4845 47.6694 48.6096 48.0078 48.6096C48.3462 48.6096 48.6794 48.4845 48.9358 48.2343C49.4485 47.7338 49.4485 46.923 48.9358 46.4225L40.6917 38.3746C40.748 38.1644 40.7891 37.9492 40.7891 37.719C40.7891 36.7731 40.2559 35.9573 39.4766 35.5118V24.9065C39.4766 24.2008 38.887 23.6252 38.1641 23.6252ZM57.3235 28.0996C57.1543 28.1046 56.98 28.1396 56.8159 28.2097L54.4165 29.2507C53.7551 29.541 53.4578 30.2968 53.75 30.9474C53.9705 31.4229 54.4473 31.7081 54.9497 31.7081C55.1292 31.7081 55.3086 31.6681 55.4829 31.593L57.8823 30.552C58.5437 30.2617 58.8411 29.506 58.5488 28.8604C58.3232 28.3749 57.8362 28.0896 57.3235 28.0996ZM17.1641 36.4377C16.4412 36.4377 15.8516 37.0133 15.8516 37.719C15.8516 38.4247 16.4412 39.0002 17.1641 39.0002H19.7891C20.512 39.0002 21.1016 38.4247 21.1016 37.719C21.1016 37.0133 20.512 36.4377 19.7891 36.4377H17.1641ZM56.5391 36.4377C55.8162 36.4377 55.2266 37.0133 55.2266 37.719C55.2266 38.4247 55.8162 39.0002 56.5391 39.0002H59.1641C59.887 39.0002 60.4766 38.4247 60.4766 37.719C60.4766 37.0133 59.887 36.4377 59.1641 36.4377H56.5391ZM55.1804 43.1593C54.6677 43.1643 54.1858 43.4646 53.9807 43.9601C53.7141 44.6157 54.0371 45.3615 54.7087 45.6267L57.144 46.5876C57.303 46.6527 57.4722 46.6827 57.6311 46.6827C58.1541 46.6827 58.6462 46.3774 58.8513 45.877C59.123 45.2213 58.8 44.4756 58.1233 44.2103L55.6931 43.2494C55.5239 43.1843 55.3496 43.1543 55.1804 43.1593ZM51.3608 48.8949C51.0276 48.9049 50.6892 49.035 50.438 49.2903C50.238 49.4905 50.1458 49.7457 50.1047 50.001C49.8843 50.4714 49.9612 51.047 50.3611 51.4374L52.0837 53.119C52.3401 53.3693 52.6733 53.4944 53.0117 53.4944C53.3501 53.4944 53.6833 53.3693 53.9397 53.119C53.9858 53.074 54.0115 53.0089 54.0525 52.9589C54.1038 52.9188 54.1653 52.8988 54.2166 52.8488C54.719 52.3383 54.7036 51.5275 54.1807 51.037L52.2939 49.2552C52.0325 49.01 51.6941 48.8899 51.3608 48.8949ZM38.1641 54.3752C37.4412 54.3752 36.8516 54.9508 36.8516 55.6565V58.219C36.8516 58.9247 37.4412 59.5002 38.1641 59.5002C38.887 59.5002 39.4766 58.9247 39.4766 58.219V55.6565C39.4766 54.9508 38.887 54.3752 38.1641 54.3752Z" fill="#F66D65"/>
</svg>
