<svg width="32" height="22" viewBox="0 0 32 22" fill="none" xmlns="http://www.w3.org/2000/svg">
<path d="M4.99999 19.9998H27M19.425 7.66228C17.1932 6.89095 14.7665 6.89535 12.5375 7.67478C12.3748 7.73132 12.2295 7.82893 12.1156 7.95814C12.0017 8.08735 11.9232 8.24378 11.8875 8.41228L11.1625 12.0998C11.1282 12.2633 11.0545 12.416 10.9478 12.5445C10.841 12.6731 10.7045 12.7736 10.55 12.8373L4.63749 15.1998C4.43637 15.2831 4.21336 15.2977 4.00312 15.2411C3.79288 15.1846 3.60722 15.0602 3.47499 14.8873C2.58182 13.7332 2.13989 12.2931 2.23192 10.8367C2.32396 9.38024 2.94365 8.00726 3.97499 6.97478C7.16507 3.78716 11.4903 1.99658 16 1.99658C20.5097 1.99658 24.8349 3.78716 28.025 6.97478C29.0563 8.00726 29.676 9.38024 29.7681 10.8367C29.8601 12.2931 29.4182 13.7332 28.525 14.8873C28.3928 15.0602 28.2071 15.1846 27.9969 15.2411C27.7866 15.2977 27.5636 15.2831 27.3625 15.1998L21.45 12.8373C21.297 12.7748 21.1614 12.6762 21.0548 12.5499C20.9481 12.4237 20.8736 12.2735 20.8375 12.1123L20.0625 8.39978C20.0291 8.2322 19.9528 8.07615 19.8411 7.94688C19.7293 7.81761 19.586 7.71955 19.425 7.66228Z" stroke="#F66D65" stroke-width="2.5" stroke-linecap="round" stroke-linejoin="round"/>
</svg>
