<svg width="83" height="83" viewBox="0 0 83 83" fill="none" xmlns="http://www.w3.org/2000/svg">
<path d="M39.8203 3.34131C19.3353 3.34131 2.66406 20.0126 2.66406 40.4976C2.66406 60.9825 19.3353 77.6538 39.8203 77.6538C60.3053 77.6538 76.9766 60.9825 76.9766 40.4976C76.9766 20.0126 60.3053 3.34131 39.8203 3.34131ZM39.8203 5.90381C58.8939 5.90381 74.4141 21.424 74.4141 40.4976C74.4141 59.5712 58.8939 75.0913 39.8203 75.0913C20.7467 75.0913 5.22656 59.5712 5.22656 40.4976C5.22656 21.424 20.7467 5.90381 39.8203 5.90381ZM39.2598 11.0388C31.7124 11.194 24.3953 14.2419 18.98 19.6572C7.49377 31.1484 7.49377 49.8417 18.98 61.3329C19.2302 61.5831 19.5605 61.7083 19.8859 61.7083C20.2162 61.7083 20.5465 61.5831 20.7968 61.3329C21.2972 60.8324 21.2972 60.0216 20.7968 59.5211C10.3015 49.0309 10.3065 31.9642 20.7968 21.474C26.8777 15.3881 35.5912 12.5653 44.0995 13.9316C44.7952 14.0468 45.4508 13.5663 45.5659 12.8706C45.681 12.1699 45.2006 11.5093 44.5049 11.3992C42.7532 11.1189 41.0015 11.0038 39.2598 11.0388ZM49.6349 12.8055C49.1344 12.8256 48.674 13.1409 48.4888 13.6364C48.2385 14.302 48.5739 15.0377 49.2395 15.288C50.1504 15.6283 51.0513 16.0187 51.9321 16.4591C52.1173 16.5542 52.3125 16.5992 52.5077 16.5992C52.9731 16.5992 53.4236 16.344 53.6538 15.8936C53.9691 15.2679 53.7139 14.4922 53.0833 14.1719C52.1273 13.6914 51.1313 13.256 50.1354 12.8806C49.9702 12.8206 49.8 12.8005 49.6349 12.8055ZM57.0321 17.0197C56.7068 17.0597 56.3965 17.2249 56.1763 17.5001C55.7408 18.0607 55.8359 18.8615 56.3965 19.2969C57.2523 19.9675 58.0781 20.7032 58.8439 21.474C69.3391 31.9642 69.3391 49.0309 58.8439 59.5211C58.3434 60.0266 58.3434 60.8324 58.8439 61.3379C59.0941 61.5831 59.4244 61.7133 59.7548 61.7133C60.0801 61.7133 60.4104 61.5831 60.6606 61.3379C72.1469 49.8467 72.1469 31.1484 60.6606 19.6572C59.8148 18.8164 58.9139 18.0156 57.978 17.2799C57.6978 17.0647 57.3524 16.9796 57.0321 17.0197ZM55.1953 28.9663C54.87 28.9663 54.5397 29.0914 54.2894 29.3417L35.9766 47.6545L26.6324 38.3104C26.132 37.8099 25.3212 37.8099 24.8207 38.3104C24.3202 38.8109 24.3202 39.6217 24.8207 40.1222L35.0707 50.3722C35.3209 50.6224 35.6462 50.7476 35.9766 50.7476C36.3069 50.7476 36.6322 50.6224 36.8824 50.3722L56.1012 31.1534C56.6017 30.653 56.6017 29.8422 56.1012 29.3417C55.851 29.0914 55.5206 28.9663 55.1953 28.9663ZM27.4883 61.5031C26.9878 61.443 26.4823 61.6732 26.222 62.1337L24.9408 64.3508C24.5854 64.9664 24.7957 65.7472 25.4062 66.1025C25.6064 66.2177 25.8267 66.2727 26.0469 66.2727C26.4873 66.2727 26.9177 66.0425 27.153 65.6321L28.4342 63.4149C28.7896 62.8043 28.5844 62.0186 27.9688 61.6632C27.8136 61.5781 27.6484 61.5231 27.4883 61.5031ZM52.1523 61.5031C51.9872 61.5231 51.822 61.5781 51.6719 61.6632C51.0563 62.0186 50.8511 62.8043 51.2064 63.4199L52.4877 65.6371C52.7229 66.0475 53.1533 66.2777 53.5938 66.2777C53.814 66.2777 54.0342 66.2177 54.2344 66.1025C54.85 65.7472 55.0552 64.9664 54.6998 64.3558L53.4186 62.1387C53.1533 61.6782 52.6478 61.443 52.1523 61.5031ZM33.1788 64.0005C32.6834 64.0706 32.2529 64.4259 32.1128 64.9414L31.4521 67.4188C31.267 68.0995 31.6774 68.8002 32.358 68.9854C32.4681 69.0154 32.5782 69.0254 32.6934 69.0254C33.2539 69.0254 33.7744 68.65 33.9296 68.0795L34.5952 65.6021C34.7754 64.9214 34.37 64.2157 33.6893 64.0355C33.5192 63.9855 33.344 63.9805 33.1788 64.0005ZM46.4668 64.0005C46.3016 63.9805 46.1265 63.9855 45.9513 64.0355C45.2706 64.2157 44.8652 64.9214 45.0454 65.6021L45.7111 68.0795C45.8662 68.65 46.3817 69.0254 46.9473 69.0254C47.0624 69.0254 47.1725 69.0154 47.2826 68.9854C47.9633 68.8002 48.3737 68.0995 48.1885 67.4188L47.5278 64.9414C47.3877 64.4259 46.9573 64.0706 46.4668 64.0005ZM39.8203 64.8413C39.1096 64.8413 38.5391 65.4119 38.5391 66.1226V68.6851C38.5391 69.3958 39.1096 69.9663 39.8203 69.9663C40.531 69.9663 41.1016 69.3958 41.1016 68.6851V66.1226C41.1016 65.4119 40.531 64.8413 39.8203 64.8413Z" fill="#F66D65"/>
</svg>
