<svg width="27" height="21" viewBox="0 0 27 21" fill="none" xmlns="http://www.w3.org/2000/svg">
<path fill-rule="evenodd" clip-rule="evenodd" d="M0.940137 17.9707C0.652637 16.8457 0.265137 14.6707 0.265137 10.9457C0.265137 7.22068 0.652637 5.04568 0.940137 3.92068C1.01941 3.61543 1.16932 3.33309 1.37776 3.09642C1.5862 2.85975 1.84735 2.67538 2.14014 2.55818C6.32764 0.958181 13.2651 0.995681 13.2651 0.995681C13.2651 0.995681 20.2026 0.958181 24.3901 2.55818C24.6829 2.67538 24.9441 2.85975 25.1525 3.09642C25.361 3.33309 25.5109 3.61543 25.5901 3.92068C25.8776 5.04568 26.2651 7.22068 26.2651 10.9457C26.2651 14.6707 25.8776 16.8457 25.5901 17.9707C25.5109 18.2759 25.361 18.5583 25.1525 18.7949C24.9441 19.0316 24.6829 19.216 24.3901 19.3332C20.2026 20.9332 13.2651 20.8957 13.2651 20.8957C13.2651 20.8957 6.32764 20.9332 2.14014 19.3332C1.84735 19.216 1.5862 19.0316 1.37776 18.7949C1.16932 18.5583 1.01941 18.2759 0.940137 17.9707ZM11.2651 6.9458L17.2651 10.9458L11.2651 14.9458V6.9458Z" fill="#F66D65"/>
</svg>
